<svg id="Capa_1" enable-background="new 0 0 512 512" viewBox="0 0 512 512" xmlns="http://www.w3.org/2000/svg"><g><g><g><path d="m406.01 40v432c0 22.09-17.91 40-40 40h-220.02c-22.09 0-40-17.91-40-40v-300.16l61.13-171.84h198.89c22.09 0 40 17.91 40 40z" fill="#51888e"/><g fill="#3b7c7f"><path d="m406.01 155.758v273.37c-11.22 2.87-22.98 4.4-35.1 4.4-43.751 0-82.857-19.919-108.733-51.18-3.214-3.883-9.139-3.883-12.353 0-25.876 31.261-64.982 51.18-108.733 51.18-12.12 0-23.88-1.53-35.1-4.4v-273.37c11.22-2.87 22.98-4.4 35.1-4.4 47.39 0 89.33 23.37 114.91 59.22 25.58-35.85 67.52-59.22 114.91-59.22 12.119 0 23.879 1.53 35.099 4.4z"/><path d="m356.012 246.041v215.959h-20.636c-13.807 0-25 11.193-25 25 0 13.807 11.193 25 25 25h30.636c22.091 0 40-17.909 40-40v-225.959c0-13.807-11.193-25-25-25-13.807 0-25 11.193-25 25z"/><path d="m265.959 462h-36.584c-14.016 0-25.824 11.47-25.558 25.483.258 13.584 11.35 24.517 24.995 24.517h37.147c13.807 0 25-11.193 25-25 0-13.807-11.193-25-25-25z"/></g><path d="m406.012 421.306v-175.265c0-13.807-11.193-25-25-25-13.807 0-25 11.193-25 25v175.264c0 13.807 11.193 25 25 25 13.807.001 25-11.192 25-24.999z" fill="#266d6b"/><path d="m192.12 25c0 13.81-11.19 25-25 25h-11.13v25.17h-50v-35.17c0-22.09 17.91-40 40-40h21.13c6.9 0 13.16 2.8 17.68 7.32s7.32 10.78 7.32 17.68z" fill="#679ca5"/><path d="m105.988 75.166v57.305c0 13.807 11.193 25 25 25 13.807 0 25-11.193 25-25v-57.305c0-13.807-11.193-25-25-25-13.807 0-25 11.193-25 25z" fill="#80b1bc"/><path d="m218.81 24.54h28.55v30h-28.55c-8.28 0-15-6.72-15-15 0-4.14 1.68-7.9 4.39-10.61 2.72-2.71 6.47-4.39 10.61-4.39z" fill="#145956"/><path d="m308.19 39.54c0 4.14-1.68 7.89-4.39 10.6-2.72 2.72-6.47 4.4-10.61 4.4h-25.702v-30h25.702c8.28 0 15 6.71 15 15z" fill="#145956"/><path d="m267.488 24.537h-22.977c-8.284 0-15 6.716-15 15 0 8.284 6.716 15 15 15h22.977c8.284 0 15-6.716 15-15 0-8.284-6.715-15-15-15z" fill="#266d6b"/></g><g><g><g><g><path d="m282.17 256c0 77.92-63.16 141.09-141.08 141.09-52.33 0-98.01-28.49-122.37-70.81h.02l11.34-119.82 70.52-85.64-.01-.01c12.83-3.84 26.42-5.9 40.5-5.9 77.92 0 141.08 63.17 141.08 141.09z" fill="#ffaf40"/></g></g><g><path d="m129.09 142.17v.44c0 9.79-6.38 18.44-15.75 21.27-10.71 3.23-20.63 8.28-29.41 14.79l-30.25 2.83-4.46 45.95c-.01.01-.01.02 0 .03-2.82 9.01-4.33 18.59-4.33 28.52 0 17.47 4.68 33.87 12.86 48 4.97 8.59 3.42 19.47-3.55 26.54-.1.11-.21.21-.31.32-10.34 10.49-27.8 8.19-35.15-4.58-11.92-20.69-18.74-44.69-18.74-70.28 0-14.54 2.2-28.58 6.3-41.78v.05l42.91-43.92 8.26-27.98v-.01c12.88-9.49 27.43-16.84 43.13-21.54 14.22-4.26 28.49 6.51 28.49 21.35z" fill="#ffc751"/><path d="m49.223 227.483c6.141-19.742 18.481-36.776 34.736-48.816 8.909-6.599 11.779-18.622 6.605-28.427-.07-.133-.14-.265-.21-.398-6.354-12.025-21.936-15.55-32.883-7.48-23.987 17.682-42.168 42.779-51.172 71.91-4.46 14.431 6.369 29.053 21.473 29.053 9.852.002 18.524-6.433 21.451-15.842z" fill="#ffe059"/><path d="m235.112 276.343c-7.344 33.979-32.694 61.335-65.526 71.541-9.411 2.926-15.847 11.599-15.847 21.454 0 15.186 14.736 25.917 29.239 21.413 48.05-14.921 85.098-54.831 95.943-104.535 3.062-14.033-7.56-27.323-21.923-27.323-10.473-.001-19.673 7.213-21.886 17.45z" fill="#ff993a"/><path d="m199.297 332.513c-8.906 6.801-19.027 12.086-29.983 15.455-9.29 2.857-15.574 11.518-15.574 21.237 0 15.085 14.566 26.071 28.981 21.625 16.08-4.959 30.922-12.726 43.971-22.719 10.454-8.005 11.557-23.372 2.411-32.845-.104-.108-.209-.216-.313-.324-7.827-8.108-20.537-9.269-29.493-2.429z" fill="#f97c15"/></g></g><g><g><path d="m512 256c0 77.92-63.17 141.09-141.09 141.09-52.33 0-98.01-28.49-122.36-70.81h.01l9.8-119.81 72.07-85.65-.01-.01c12.82-3.84 26.42-5.9 40.49-5.9 77.92 0 141.09 63.17 141.09 141.09z" fill="#229bff"/></g><g><path d="m358.92 142.17v.44c0 9.79-6.39 18.44-15.75 21.27-39.56 11.94-68.45 48.72-68.45 92.12 0 17.47 4.68 33.87 12.85 48 4.97 8.59 3.43 19.47-3.54 26.54-.1.11-.21.21-.32.32-10.33 10.49-27.8 8.19-35.15-4.58-11.91-20.69-18.73-44.69-18.73-70.28 0-14.54 2.2-28.56 6.29-41.76l.01.03 46.04-43.92 5.13-27.98v-.01c12.88-9.49 27.43-16.84 43.13-21.54 14.21-4.26 28.49 6.51 28.49 21.35z" fill="#48acff"/><path d="m279.05 227.483c6.141-19.742 18.481-36.776 34.736-48.816 8.909-6.599 11.779-18.622 6.605-28.427-.07-.133-.14-.265-.21-.398-6.354-12.025-21.936-15.55-32.883-7.48-23.987 17.682-42.168 42.779-51.172 71.91-4.46 14.431 6.369 29.053 21.473 29.053 9.853.002 18.524-6.433 21.451-15.842z" fill="#7cbaf7"/><path d="m464.94 276.343c-7.344 33.979-32.694 61.335-65.526 71.541-9.411 2.926-15.847 11.599-15.847 21.454 0 15.186 14.736 25.917 29.239 21.413 48.05-14.921 85.098-54.831 95.943-104.535 3.062-14.033-7.56-27.323-21.923-27.323-10.473-.001-19.674 7.213-21.886 17.45z" fill="#037cff"/><path d="m429.124 332.513c-8.906 6.801-19.027 12.086-29.983 15.455-9.29 2.857-15.574 11.518-15.574 21.237 0 15.085 14.566 26.071 28.981 21.625 16.08-4.959 30.922-12.726 43.971-22.719 10.454-8.005 11.557-23.372 2.411-32.845-.104-.108-.208-.216-.313-.324-7.826-8.108-20.537-9.269-29.493-2.429z" fill="#0066f9"/><path d="m439.528 159.281-.291.345c-7.363 8.733-6.864 21.579 1.048 29.818 6.01 6.258 11.185 13.325 15.34 21.02 5.15 9.537 16.225 14.209 26.57 10.977 13.474-4.209 19.764-19.656 13.083-32.09-6.156-11.457-13.851-21.965-22.807-31.249-9.126-9.463-24.469-8.872-32.943 1.179z" fill="#037cff"/></g></g><g fill="#f8fffc"><path d="m328.243 280.262c0 2.219-1.799 4.019-4.019 4.019h-19.334c-2.219 0-4.019-1.799-4.019-4.019v-74.703c0-3.866-3.134-7-7-7h-16c-3.866 0-7 3.134-7 7v74.703c0 18.788 15.231 34.019 34.019 34.019h19.335c18.788 0 34.019-15.231 34.019-34.019v-74.703c0-3.866-3.134-7-7-7h-16c-3.866 0-7 3.134-7 7v74.703z"/><path d="m468.036 210.019-13.681-10.689c-3.306-2.583-8.079-1.997-10.662 1.309l-22.269 28.503-22.269-28.503c-2.583-3.306-7.356-3.892-10.662-1.309l-13.681 10.689c-3.306 2.583-3.892 7.356-1.309 10.662l27.266 34.899-27.266 34.899c-2.583 3.306-1.996 8.079 1.309 10.662l13.681 10.689c3.306 2.583 8.079 1.996 10.662-1.309l22.269-28.503 22.269 28.503c2.583 3.306 7.356 3.892 10.662 1.309l13.681-10.689c3.306-2.583 3.892-7.356 1.309-10.662l-27.266-34.899 27.266-34.899c2.583-3.306 1.997-8.079-1.309-10.662z"/></g></g></g><g fill="#f8fffc"><path d="m130.391 279.842c0 2.219-1.799 4.019-4.019 4.019h-19.335c-2.219 0-4.019-1.799-4.019-4.019v-74.703c0-3.866-3.134-7-7-7h-16c-3.866 0-7 3.134-7 7v74.703c0 18.788 15.231 34.019 34.019 34.019h19.335c18.788 0 34.019-15.231 34.019-34.019v-74.703c0-3.866-3.134-7-7-7h-16c-3.866 0-7 3.134-7 7z"/><path d="m186.155 312.181h16c3.866 0 7-3.134 7-7v-100.042c0-3.866-3.134-7-7-7h-16c-3.866 0-7 3.134-7 7v100.042c0 3.866 3.134 7 7 7z"/></g></g><g/><g/><g/><g/><g/><g/><g/><g/><g/><g/><g/><g/><g/><g/><g/></svg>