<svg id="Layer_1" height="512" viewBox="0 0 32 32" width="512" xmlns="http://www.w3.org/2000/svg" data-name="Layer 1"><path d="m8.91 23.56v4.2a4.25 4.25 0 1 1 -8.49 0v-4.19h8.49z" fill="#dfd7d5"/><path d="m31.58 24.8v3h-5.67v-4.2h4.43a1.25 1.25 0 0 1 1.24 1.2z" fill="#25d9f8"/><path d="m31.58 27.76v3a1.24 1.24 0 0 1 -1.24 1.24h-4.43v-4.24z" fill="#00c0f1"/><path d="m20.24 27.76h5.66v4.24h-5.66z" fill="#00abe9"/><path d="m20.24 23.56h5.66v4.2h-5.66z" fill="#00c0f1"/><path d="m14.57 27.76h5.67v4.24h-5.67z" fill="#0095ff"/><path d="m14.57 23.56h5.67v4.2h-5.67z" fill="#00abe9"/><path d="m8.91 23.56h5.67v4.2h-5.67z" fill="#0095ff"/><path d="m8.91 27.76h5.67v4.24h-5.67z" fill="#0285c6"/><path d="m29.56 16.49-7.28 4.17-4.2-7.32 7.28-4.17a1.24 1.24 0 0 1 1.69.46l3 5.17a1.24 1.24 0 0 1 -.49 1.69z" fill="#ffd400"/><path d="m8.91 23.57h-8.48l4.83-2.87 1.51-.86 1.47 2.56z" fill="#ff7816"/><path d="m22.28 20.66-5.06 2.91-4.33-7.25 1.76-1.01 3.43-1.96z" fill="#fdbf00"/><path d="m17.22 23.57h-8.31l-.67-1.17-1.47-2.56 4.97-2.86 1.15-.66z" fill="#ff9f00"/><path d="m20.65 4.81-1.77 3.1-7.35-4.13 1.8-3.16a1.24 1.24 0 0 1 1.67-.46l5.17 2.95a1.24 1.24 0 0 1 .48 1.7z" fill="#fc70b6"/><path d="m18.88 7.91-2.39 4.18-7.32-4.18 2.36-4.13z" fill="#ff3997"/><path d="m5.26 20.7-4.83 2.87 2.3-4.13z" fill="#bf065a"/><path d="m16.49 12.1-1.84 3.21-1.76 1.01-1.15.66-5.72-3.43 3.15-5.64z" fill="#f50b75"/><path d="m11.74 16.98-4.97 2.86-1.51.86-2.53-1.26 3.29-5.89z" fill="#d20763"/><path d="m6.39 27.78a1.73 1.73 0 1 1 -1.73-1.72 1.72 1.72 0 0 1 1.73 1.72z" fill="#788d9a"/><path d="m8.91 27.76v4.24h-4.25a4.24 4.24 0 0 0 4.25-4.24z" fill="#d2c5c2"/></svg>