<svg id="Layer_1" height="512" viewBox="0 0 256 256" width="512" xmlns="http://www.w3.org/2000/svg"><g><g><g><g><g><g><path d="m198.07 83.029c0-8.284-6.716-15-15-15h-124.524c-8.284 0-15 6.716-15 15v82.23c0 8.284 6.716 15 15 15h124.524c8.284 0 15-6.716 15-15z" fill="#a54af4"/></g></g></g><g><g><g><path d="m49.546 159.638c-1.104 0-2-.896-2-2v-59c0-1.104.896-2 2-2s2 .896 2 2v59c0 1.105-.895 2-2 2zm0-67c-1.104 0-2-.896-2-2v-.577c0-1.104.896-2 2-2s2 .896 2 2v.577c0 1.105-.895 2-2 2z" fill="#b171f4"/></g></g></g><g><g><path d="m187.423 68.676c.418 1.378.647 2.839.647 4.353v82.23c0 8.284-6.716 15-15 15h-124.524c-1.515 0-2.975-.229-4.353-.647 1.866 6.16 7.584 10.647 14.353 10.647h124.524c8.284 0 15-6.716 15-15v-82.23c0-6.77-4.487-12.487-10.647-14.353z" fill="#893add"/></g></g><g><g><path d="m190.866 70.232c1.389 2.274 2.203 4.937 2.203 7.797v82.23c0 8.284-6.716 15-15 15h-124.523c-2.86 0-5.523-.815-7.797-2.203 2.634 4.314 7.372 7.203 12.797 7.203h124.524c8.284 0 15-6.716 15-15v-82.23c0-5.425-2.89-10.163-7.204-12.797z" fill="#6c2bc1"/></g></g><path d="m126.763 43.472h-11.91c-3.517 14.105-16.266 24.557-31.46 24.557h74.829c-15.193 0-27.942-10.452-31.459-24.557z" fill="#414042"/><g><g><circle cx="120.808" cy="123.85" fill="#6c2bc1" r="33.788"/></g></g><g><g><path d="m109.017 140.765v-33.831c0-2.25 2.493-3.605 4.382-2.381l26.097 16.915c1.726 1.119 1.726 3.644 0 4.763l-26.097 16.915c-1.889 1.224-4.382-.131-4.382-2.381z" fill="#ffc91d"/></g></g><g><g><path d="m139.495 121.468-3.73-2.417c-.059.842-.471 1.663-1.27 2.18l-25.478 16.514v3.019c0 2.25 2.493 3.605 4.382 2.381l26.097-16.915c1.725-1.117 1.725-3.643-.001-4.762z" fill="#ffa91a"/></g></g><g><g><g><path d="m198.07 98.987v49.111l27.176 10.805v-70.722z" fill="#58595b"/></g></g></g><g><g><path d="m198.07 148.098 27.176 10.805v-5l-27.176-10.805z" fill="#414042"/></g></g><g><g><g><g><path d="m83.393 3.176c-17.909 0-32.426 14.518-32.426 32.426s14.518 32.426 32.426 32.426 32.426-14.518 32.426-32.426-14.517-32.426-32.426-32.426z" fill="#808285"/></g></g></g><g><g><path d="m103.681 10.315c4.463 5.555 7.139 12.607 7.139 20.288 0 17.909-14.518 32.426-32.426 32.426-7.68 0-14.732-2.676-20.288-7.139 5.943 7.398 15.06 12.139 25.288 12.139 17.909 0 32.426-14.518 32.426-32.426 0-10.229-4.74-19.345-12.139-25.288z" fill="#58595b"/></g></g><g><g><g><path d="m83.393 19.133c-9.096 0-16.47 7.374-16.47 16.47s7.374 16.47 16.47 16.47 16.47-7.374 16.47-16.47-7.374-16.47-16.47-16.47z" fill="#d1d3d4"/></g></g></g><g><g><g><path d="m158.223 3.176c-17.909 0-32.426 14.518-32.426 32.426s14.518 32.426 32.426 32.426 32.426-14.518 32.426-32.426-14.518-32.426-32.426-32.426z" fill="#808285"/></g></g></g><g><g><path d="m178.51 10.315c4.463 5.555 7.139 12.607 7.139 20.288 0 17.909-14.518 32.426-32.426 32.426-7.68 0-14.732-2.676-20.288-7.139 5.943 7.398 15.06 12.139 25.288 12.139 17.909 0 32.426-14.518 32.426-32.426 0-10.229-4.74-19.345-12.139-25.288z" fill="#58595b"/></g></g><g><g><g><path d="m158.223 19.133c-9.096 0-16.47 7.374-16.47 16.47s7.374 16.47 16.47 16.47 16.47-7.374 16.47-16.47-7.374-16.47-16.47-16.47z" fill="#d1d3d4"/></g></g></g></g><g><g><path d="m236.5 158.991h-11.254v-70.81h11.254c2.761 0 5 2.239 5 5v60.81c0 2.762-2.239 5-5 5z" fill="#939598"/></g></g><g><g><path d="m236.5 88.181v60.81c0 2.761-2.239 5-5 5h-6.254v5h11.254c2.761 0 5-2.239 5-5v-60.81c0-2.761-2.239-5-5-5z" fill="#808285"/></g></g><g><g><g><path d="m26.152 102.066h17.381v44.155h-17.381z" fill="#58595b"/></g></g><g><g><path d="m26.152 141.221h17.381v5h-17.381z" fill="#414042"/></g></g><g><g><path d="m20.326 156.118c-3.218 0-5.826-2.608-5.826-5.826v-52.296c0-3.218 2.608-5.826 5.826-5.826 3.218 0 5.826 2.608 5.826 5.826v52.296c0 3.217-2.608 5.826-5.826 5.826z" fill="#939598"/></g></g><g><g><path d="m21.095 92.226c.033.252.057.508.057.769v52.296c0 3.218-2.608 5.826-5.826 5.826-.262 0-.517-.023-.769-.057.377 2.853 2.813 5.057 5.769 5.057 3.218 0 5.826-2.608 5.826-5.826v-52.295c0-2.957-2.204-5.392-5.057-5.77z" fill="#808285"/></g></g></g></g></g><g><g><g><g><path d="m224.24 187.258h-192.48c-2.761 0-5 2.239-5 5v55.566c0 2.761 2.239 5 5 5h192.48c2.761 0 5-2.239 5-5v-55.566c0-2.762-2.239-5-5-5z" fill="#58595b"/></g></g><g><g><path d="m224.24 187.258v55.566c0 2.761-2.239 5-5 5h-192.48c0 2.761 2.239 5 5 5h192.48c2.761 0 5-2.239 5-5v-55.566c0-2.762-2.239-5-5-5z" fill="#414042"/></g></g><g><g><path d="m26.76 199.988h202.48v40.141h-202.48z" fill="#e6e7e8"/></g></g><g><g><path d="m224.24 199.988h5v40.141h-5z" fill="#d1d3d4"/></g></g><g><g><g><g><g><path d="m40.975 197.244h-3.985c-.676 0-1.224-.548-1.224-1.224v-3.985c0-.676.548-1.224 1.224-1.224h3.985c.676 0 1.224.548 1.224 1.224v3.985c0 .676-.548 1.224-1.224 1.224z" fill="#e6e7e8"/></g></g><g><g><path d="m40.975 249.271h-3.985c-.676 0-1.224-.548-1.224-1.224v-3.985c0-.676.548-1.224 1.224-1.224h3.985c.676 0 1.224.548 1.224 1.224v3.985c0 .676-.548 1.224-1.224 1.224z" fill="#e6e7e8"/></g></g></g><g><g><g><path d="m60.768 197.244h-3.985c-.676 0-1.224-.548-1.224-1.224v-3.985c0-.676.548-1.224 1.224-1.224h3.985c.676 0 1.224.548 1.224 1.224v3.985c0 .676-.548 1.224-1.224 1.224z" fill="#e6e7e8"/></g></g><g><g><path d="m60.768 249.271h-3.985c-.676 0-1.224-.548-1.224-1.224v-3.985c0-.676.548-1.224 1.224-1.224h3.985c.676 0 1.224.548 1.224 1.224v3.985c0 .676-.548 1.224-1.224 1.224z" fill="#e6e7e8"/></g></g></g><g><g><g><path d="m80.561 197.244h-3.985c-.676 0-1.224-.548-1.224-1.224v-3.985c0-.676.548-1.224 1.224-1.224h3.985c.676 0 1.224.548 1.224 1.224v3.985c0 .676-.548 1.224-1.224 1.224z" fill="#e6e7e8"/></g></g><g><g><path d="m80.561 249.271h-3.985c-.676 0-1.224-.548-1.224-1.224v-3.985c0-.676.548-1.224 1.224-1.224h3.985c.676 0 1.224.548 1.224 1.224v3.985c0 .676-.548 1.224-1.224 1.224z" fill="#e6e7e8"/></g></g></g><g><g><g><path d="m100.354 197.244h-3.985c-.676 0-1.224-.548-1.224-1.224v-3.985c0-.676.548-1.224 1.224-1.224h3.985c.676 0 1.224.548 1.224 1.224v3.985c0 .676-.548 1.224-1.224 1.224z" fill="#e6e7e8"/></g></g><g><g><path d="m100.354 249.271h-3.985c-.676 0-1.224-.548-1.224-1.224v-3.985c0-.676.548-1.224 1.224-1.224h3.985c.676 0 1.224.548 1.224 1.224v3.985c0 .676-.548 1.224-1.224 1.224z" fill="#e6e7e8"/></g></g></g><g><g><g><path d="m120.147 197.244h-3.985c-.676 0-1.224-.548-1.224-1.224v-3.985c0-.676.548-1.224 1.224-1.224h3.985c.676 0 1.224.548 1.224 1.224v3.985c0 .676-.548 1.224-1.224 1.224z" fill="#e6e7e8"/></g></g><g><g><path d="m120.147 249.271h-3.985c-.676 0-1.224-.548-1.224-1.224v-3.985c0-.676.548-1.224 1.224-1.224h3.985c.676 0 1.224.548 1.224 1.224v3.985c0 .676-.548 1.224-1.224 1.224z" fill="#e6e7e8"/></g></g></g></g><g><g><g><g><path d="m139.838 197.244h-3.985c-.676 0-1.224-.548-1.224-1.224v-3.985c0-.676.548-1.224 1.224-1.224h3.985c.676 0 1.224.548 1.224 1.224v3.985c-.001.676-.548 1.224-1.224 1.224z" fill="#e6e7e8"/></g></g><g><g><path d="m139.838 249.271h-3.985c-.676 0-1.224-.548-1.224-1.224v-3.985c0-.676.548-1.224 1.224-1.224h3.985c.676 0 1.224.548 1.224 1.224v3.985c-.001.676-.548 1.224-1.224 1.224z" fill="#e6e7e8"/></g></g></g><g><g><g><path d="m159.631 197.244h-3.985c-.676 0-1.224-.548-1.224-1.224v-3.985c0-.676.548-1.224 1.224-1.224h3.985c.676 0 1.224.548 1.224 1.224v3.985c-.001.676-.548 1.224-1.224 1.224z" fill="#e6e7e8"/></g></g><g><g><path d="m159.631 249.271h-3.985c-.676 0-1.224-.548-1.224-1.224v-3.985c0-.676.548-1.224 1.224-1.224h3.985c.676 0 1.224.548 1.224 1.224v3.985c-.001.676-.548 1.224-1.224 1.224z" fill="#e6e7e8"/></g></g></g><g><g><g><path d="m179.424 197.244h-3.985c-.676 0-1.224-.548-1.224-1.224v-3.985c0-.676.548-1.224 1.224-1.224h3.985c.676 0 1.224.548 1.224 1.224v3.985c-.001.676-.548 1.224-1.224 1.224z" fill="#e6e7e8"/></g></g><g><g><path d="m179.424 249.271h-3.985c-.676 0-1.224-.548-1.224-1.224v-3.985c0-.676.548-1.224 1.224-1.224h3.985c.676 0 1.224.548 1.224 1.224v3.985c-.001.676-.548 1.224-1.224 1.224z" fill="#e6e7e8"/></g></g></g><g><g><g><path d="m199.217 197.244h-3.985c-.676 0-1.224-.548-1.224-1.224v-3.985c0-.676.548-1.224 1.224-1.224h3.985c.676 0 1.224.548 1.224 1.224v3.985c-.001.676-.548 1.224-1.224 1.224z" fill="#e6e7e8"/></g></g><g><g><path d="m199.217 249.271h-3.985c-.676 0-1.224-.548-1.224-1.224v-3.985c0-.676.548-1.224 1.224-1.224h3.985c.676 0 1.224.548 1.224 1.224v3.985c-.001.676-.548 1.224-1.224 1.224z" fill="#e6e7e8"/></g></g></g><g><g><g><path d="m219.01 197.244h-3.985c-.676 0-1.224-.548-1.224-1.224v-3.985c0-.676.548-1.224 1.224-1.224h3.985c.676 0 1.224.548 1.224 1.224v3.985c-.001.676-.548 1.224-1.224 1.224z" fill="#e6e7e8"/></g></g><g><g><path d="m219.01 249.271h-3.985c-.676 0-1.224-.548-1.224-1.224v-3.985c0-.676.548-1.224 1.224-1.224h3.985c.676 0 1.224.548 1.224 1.224v3.985c-.001.676-.548 1.224-1.224 1.224z" fill="#e6e7e8"/></g></g></g></g></g></g><g><g><g><g><path d="m67.271 237.129h-28.542c-2.761 0-5-2.239-5-5v-24.141c0-2.761 2.239-5 5-5h28.542c2.761 0 5 2.239 5 5v24.141c0 2.762-2.239 5-5 5z" fill="#a54af4"/></g></g></g><g><g><path d="m67.271 202.988v24.141c0 2.761-2.239 5-5 5h-28.542c0 2.761 2.239 5 5 5h28.542c2.761 0 5-2.239 5-5v-24.141c0-2.761-2.239-5-5-5z" fill="#893add"/></g></g><g><g><g><path d="m117.271 237.129h-28.542c-2.761 0-5-2.239-5-5v-24.141c0-2.761 2.239-5 5-5h28.542c2.761 0 5 2.239 5 5v24.141c0 2.762-2.239 5-5 5z" fill="#a54af4"/></g></g></g><g><g><path d="m117.271 202.988v24.141c0 2.761-2.239 5-5 5h-28.542c0 2.761 2.239 5 5 5h28.542c2.761 0 5-2.239 5-5v-24.141c0-2.761-2.239-5-5-5z" fill="#893add"/></g></g><g><g><g><path d="m167.271 237.129h-28.542c-2.761 0-5-2.239-5-5v-24.141c0-2.761 2.239-5 5-5h28.542c2.761 0 5 2.239 5 5v24.141c0 2.762-2.239 5-5 5z" fill="#a54af4"/></g></g></g><g><g><path d="m167.271 202.988v24.141c0 2.761-2.239 5-5 5h-28.542c0 2.761 2.239 5 5 5h28.542c2.761 0 5-2.239 5-5v-24.141c0-2.761-2.239-5-5-5z" fill="#893add"/></g></g><g><g><g><path d="m217.271 237.129h-28.542c-2.761 0-5-2.239-5-5v-24.141c0-2.761 2.239-5 5-5h28.542c2.761 0 5 2.239 5 5v24.141c0 2.762-2.239 5-5 5z" fill="#a54af4"/></g></g></g><g><g><path d="m217.271 202.988v24.141c0 2.761-2.239 5-5 5h-28.542c0 2.761 2.239 5 5 5h28.542c2.761 0 5-2.239 5-5v-24.141c0-2.761-2.239-5-5-5z" fill="#893add"/></g></g></g></g></g></svg>